<?xml version="1.0" standalone="no"?><!DOCTYPE svg PUBLIC "-//W3C//DTD SVG 1.1//EN" "http://www.w3.org/Graphics/SVG/1.1/DTD/svg11.dtd"><svg t="1652247199015" class="icon" viewBox="0 0 1024 1024" version="1.1" xmlns="http://www.w3.org/2000/svg" p-id="3638" width="18" height="18" xmlns:xlink="http://www.w3.org/1999/xlink"><defs><style type="text/css"></style></defs><path d="M842.24 66.56c0-15.36-17.92-35.84-33.28-33.28h-691.2c-15.36 0-33.28 20.48-33.28 35.84v811.52c0 15.36 12.8 30.72 30.72 30.72h343.04c-2.56-7.68-5.12-17.92-5.12-28.16v-256h-76.8c-10.24 0-17.92-7.68-17.92-15.36v-15.36c0-10.24 7.68-15.36 17.92-15.36h76.8c7.68-33.28 35.84-56.32 69.12-56.32h320V66.56zM248.32 642.56c-23.04 0-40.96-17.92-40.96-40.96 0-23.04 17.92-40.96 40.96-40.96 23.04 0 40.96 17.92 40.96 40.96 2.56 23.04-15.36 40.96-40.96 40.96z m0-179.2c-23.04 0-40.96-17.92-40.96-40.96 0-23.04 17.92-40.96 40.96-40.96 23.04 0 40.96 17.92 40.96 40.96 2.56 23.04-15.36 40.96-40.96 40.96z m0-179.2c-23.04 0-40.96-17.92-40.96-40.96 0-23.04 17.92-40.96 40.96-40.96 23.04 0 40.96 17.92 40.96 40.96 2.56 23.04-15.36 40.96-40.96 40.96z m448 148.48c0 10.24-7.68 15.36-17.92 15.36H376.32c-10.24 0-17.92-7.68-17.92-15.36v-15.36c0-10.24 7.68-15.36 17.92-15.36h304.64c10.24 0 17.92 7.68 17.92 15.36v15.36z m0-181.76c0 10.24-7.68 15.36-17.92 15.36H376.32c-10.24 0-17.92-7.68-17.92-15.36v-15.36c0-10.24 7.68-15.36 17.92-15.36h304.64c10.24 0 17.92 7.68 17.92 15.36v15.36z m192 343.04H576c-28.16 0-51.2 23.04-51.2 53.76v215.04c0 30.72 23.04 53.76 51.2 53.76h168.96l92.16 94.72v-94.72h51.2c28.16 0 51.2-23.04 51.2-53.76v-215.04c2.56-28.16-23.04-53.76-51.2-53.76z m-245.76 189.44c-15.36 0-25.6-12.8-25.6-25.6 0-15.36 12.8-25.6 25.6-25.6 15.36 0 25.6 12.8 25.6 25.6s-12.8 25.6-25.6 25.6z m89.6 0c-15.36 0-25.6-12.8-25.6-25.6 0-15.36 12.8-25.6 25.6-25.6 15.36 0 25.6 12.8 25.6 25.6s-10.24 25.6-25.6 25.6z m92.16 0c-15.36 0-25.6-12.8-25.6-25.6 0-15.36 12.8-25.6 25.6-25.6 15.36 0 25.6 12.8 25.6 25.6s-12.8 25.6-25.6 25.6z" fill="#999999" p-id="3639"></path></svg>